<?xml version="1.0" encoding="utf-8"?>
<!-- Generator: Adobe Illustrator 19.0.0, SVG Export Plug-In . SVG Version: 6.00 Build 0)  -->
<svg version="1.1" id="Layer_1" xmlns="http://www.w3.org/2000/svg" xmlns:xlink="http://www.w3.org/1999/xlink" x="0px" y="0px"
	 viewBox="0 0 1000 1000" style="enable-background:new 0 0 1000 1000;" xml:space="preserve">
<style type="text/css">
	.st0{fill:url(#XMLID_3_);}
	.st1{fill:url(#XMLID_4_);}
	.st2{fill:url(#XMLID_5_);}
	.st3{fill:#A51700;}
	.st4{fill:url(#XMLID_7_);}
	.st5{fill:url(#XMLID_8_);}
	.st6{fill:url(#XMLID_9_);}
	.st7{fill:url(#XMLID_10_);}
	.st8{fill:url(#XMLID_11_);}
	.st9{fill:url(#XMLID_14_);}
	.st10{fill:url(#XMLID_17_);}
	.st11{fill:url(#XMLID_18_);}
	.st12{fill:url(#XMLID_19_);}
	.st13{fill:url(#XMLID_20_);}
	.st14{fill:#6A1700;}
</style>
<g id="XMLID_6_">
	<linearGradient id="XMLID_3_" gradientUnits="userSpaceOnUse" x1="259.0531" y1="327.6826" x2="763.9224" y2="619.169">
		<stop  offset="0" style="stop-color:#FFFFFF"/>
		<stop  offset="0.1863" style="stop-color:#FCFCFC"/>
		<stop  offset="0.335" style="stop-color:#F2F2F2"/>
		<stop  offset="0.4707" style="stop-color:#E1E1E1"/>
		<stop  offset="0.5987" style="stop-color:#C9C9C9"/>
		<stop  offset="0.7214" style="stop-color:#ABABAB"/>
		<stop  offset="0.8399" style="stop-color:#858585"/>
		<stop  offset="0.9531" style="stop-color:#595959"/>
		<stop  offset="1" style="stop-color:#454545"/>
	</linearGradient>
	<path id="XMLID_29_" class="st0" d="M229.3,545.4c0-0.1-0.1-0.3-0.1-0.4c20.6,61,62.2,112.5,116.2,145.7
		c47.7,40.1,109.2,64.2,176.4,64.2c4.2,0,8.5-0.1,12.6-0.3c145.4-6.6,261.2-126.2,261.2-272.8c0-26.4-3.7-51.9-10.7-76
		c0,0,0,0,0-0.1c0-0.1,0-0.1,0-0.2c0,0.1,0,0.2,0,0.2c-19.1-65.9-62.4-121.5-119.7-156.6c-46.8-39.4-107-63.1-172.8-64.1
		c0,0,0,0,0,0c0,0,0,0,0,0c9.9-1,20-1.5,30.2-1.5c1.8,0,3.6,0,5.5,0c7.5,0.1,15,0.5,22.3,1.2c-13-1.8-26.3-2.8-39.8-2.8
		c-160.7,0-290.9,131.2-290.9,293c0,36.7,6.7,71.9,19,104.3c-3.8-11.1-7-22.5-9.4-34.1C229.3,545.2,229.3,545.3,229.3,545.4z
		 M719.8,587.9c9.6,3,15,13.4,11.9,23.1c-3,9.7-13.2,15.1-22.8,12.1c-1.9-0.6-3.7-1.5-5.3-2.7c7.6-0.2,14.6-5.2,17-12.9
		c2.4-7.7-0.5-15.8-6.7-20.4C715.8,587,717.8,587.3,719.8,587.9z M709,609.5c-4.1,0-7.4-3.3-7.4-7.4s3.3-7.4,7.4-7.4
		c4.1,0,7.4,3.3,7.4,7.4S713.1,609.5,709,609.5z M684.3,596.8c1.4-10.1,10.6-17.1,20.5-15.7c2,0.3,3.9,0.9,5.6,1.8
		c-7.5,1.4-13.5,7.5-14.6,15.6c-1.1,8,3.1,15.5,9.9,19c-1.9,0.4-3.9,0.5-5.9,0.2C689.9,616.2,682.9,606.9,684.3,596.8z M505,216
		L505,216L505,216h26v164.3c1-0.7,1.6-1.4,2.4-2.1c12.1-9.9,26.3-15.2,40.8-16.2c6-0.4,12-0.1,17.9,1c16.7,3,32.4,11.9,43.9,26.2
		c25.3,31.6,20.5,78-10.9,103.6c-0.4,0.4-0.9,0.7-1.3,1l46,126.1l-26.7-0.2l-42-114c-7.8,2.5-16.1,3.6-24.1,3.4V509h-29v-29h28.8
		h5.4c8.6-2,17.1-5.1,24.3-11c18-14.7,20.8-41.5,6.2-59.7c-9.4-11.8-23.9-17.3-37.8-15.5l-0.5-23.1L531,389.4V620h-26V218.5v-0.2
		V216z M423,465.4c14.3,0,27,4.2,39,11.3V447v-22h24v1.8V619h-24V493.9l-10.8,14c-7.5-7.2-17.7-11.6-28.9-11.6
		c-23.1,0-41.9,18.9-41.9,42.2c0,15.2,7.9,28.5,19.8,35.9l-14,18.3l58.6,16.7c-7,2.2-14.4,3.4-22.1,3.4c-15.5,0-29.9-4.9-41.8-13.3
		c-4.9-3.5-9.4-7.6-13.4-12.2c-11.1-12.9-17.8-29.8-17.7-48.3C350,498.3,382.7,465.3,423,465.4z"/>
	<g id="XMLID_74_">
		
			<image style="overflow:visible;opacity:0.35;" width="114" height="489" id="XMLID_70_" xlink:href="646B1D04.png"  transform="matrix(1 0 0 1 464 180)">
		</image>
		<g id="XMLID_41_">
			
				<image style="overflow:visible;opacity:0.79;" width="56" height="433" id="XMLID_69_" xlink:href="646B1D05.png"  transform="matrix(1 0 0 1 493 208)">
			</image>
			<g id="XMLID_63_">
				<linearGradient id="XMLID_4_" gradientUnits="userSpaceOnUse" x1="428.123" y1="261.9623" x2="608.8771" y2="575.0377">
					<stop  offset="0" style="stop-color:#FFFFFF"/>
					<stop  offset="0.1125" style="stop-color:#FAFAFA"/>
					<stop  offset="0.2366" style="stop-color:#EDEDED"/>
					<stop  offset="0.3662" style="stop-color:#D7D7D7"/>
					<stop  offset="0.4997" style="stop-color:#B8B8B8"/>
					<stop  offset="0.6361" style="stop-color:#909090"/>
					<stop  offset="0.775" style="stop-color:#606060"/>
					<stop  offset="0.9133" style="stop-color:#272727"/>
					<stop  offset="1" style="stop-color:#000000"/>
				</linearGradient>
				<path id="XMLID_67_" class="st1" d="M530,237.9l-24-19.4V620h25V389.4l-12.6,5.4c3.5-5.3,7.6-10.2,12.6-14.6V217h-25l0,0h24
					V237.9z"/>
			</g>
		</g>
	</g>
	<g id="XMLID_75_">
		
			<image style="overflow:visible;opacity:0.35;" width="154" height="211" id="XMLID_60_" xlink:href="646B1D03.png"  transform="matrix(1 0 0 1 562 458)">
		</image>
		<g id="XMLID_39_">
			
				<image style="overflow:visible;opacity:0.79;" width="99" height="157" id="XMLID_58_" xlink:href="646B1D0C.png"  transform="matrix(1 0 0 1 589 484)">
			</image>
			<g id="XMLID_55_">
				<linearGradient id="XMLID_5_" gradientUnits="userSpaceOnUse" x1="591.9165" y1="515.181" x2="683.2374" y2="606.5019">
					<stop  offset="0" style="stop-color:#FFFFFF"/>
					<stop  offset="0.6128" style="stop-color:#606060"/>
					<stop  offset="1" style="stop-color:#000000"/>
				</linearGradient>
				<path id="XMLID_57_" class="st2" d="M643.2,619.7l26.7,0.2l-46-126.1c-6.9,5.4-14.5,9.3-22.4,11.9L643.2,619.7z"/>
			</g>
		</g>
	</g>
	<g id="XMLID_78_">
		
			<image style="overflow:visible;opacity:0.35;" width="200" height="234" id="XMLID_144_" xlink:href="646B1D0F.png"  transform="matrix(1 0 0 1 309 428)">
		</image>
		<g id="XMLID_107_">
			
				<image style="overflow:visible;opacity:0.79;" width="143" height="178" id="XMLID_143_" xlink:href="646B1D0D.png"  transform="matrix(1 0 0 1 337 456)">
			</image>
			<g id="XMLID_136_">
				<path id="XMLID_140_" class="st3" d="M381,599.4c11.8,8.4,26.2,13.3,41.8,13.3c7.7,0,15.1-1.2,22.1-3.4l-58.6-16.7l14-18.3
					c-11.9-7.4-19.8-20.8-19.8-35.9c0-23.3,18.8-42.2,41.9-42.2c11.2,0,21.3,4.4,28.8,11.6l10.7-14v-17.2
					c-11.2-7.2-24.6-11.3-38.8-11.3c-40.3,0-73,32.9-73,73.6c0,18.5,6.7,35.4,17.8,48.3C371.6,591.9,376.1,595.9,381,599.4z
					 M356.8,549.5c-1.3-0.2-5.5-31,12.6-54.1c1.6-2,9.1-11.3,22.7-17.7c25.8-12.1,52.9-4.2,52.9-2.1c0,2-25.6-3.8-50.7,11.3
					c-16.1,9.7-24.6,23.6-27.7,29.2C356.7,534.1,357.7,549.7,356.8,549.5z"/>
			</g>
		</g>
	</g>
	<g id="XMLID_79_">
		
			<image style="overflow:visible;opacity:0.35;" width="114" height="278" id="XMLID_68_" xlink:href="646B1D02.png"  transform="matrix(1 0 0 1 420 391)">
		</image>
		<g id="XMLID_40_">
			
				<image style="overflow:visible;opacity:0.79;" width="56" height="224" id="XMLID_66_" xlink:href="646B1D06.png"  transform="matrix(1 0 0 1 449 417)">
			</image>
			<g id="XMLID_59_">
				<linearGradient id="XMLID_7_" gradientUnits="userSpaceOnUse" x1="430.2851" y1="478.6751" x2="528.805" y2="577.195">
					<stop  offset="0" style="stop-color:#FFFFFF"/>
					<stop  offset="1" style="stop-color:#000000"/>
				</linearGradient>
				<polygon id="XMLID_64_" class="st4" points="462,619 487,619 487,426.8 462,447 462,476.7 462,493.9 				"/>
			</g>
		</g>
	</g>
	<g id="XMLID_80_">
		
			<image style="overflow:visible;opacity:0.79;" width="56" height="51" id="XMLID_27_" xlink:href="646B1D07.png"  transform="matrix(1 0 0 1 449 417)">
		</image>
		<g id="XMLID_16_">
			<polygon id="XMLID_26_" class="st3" points="487,426 462,426 462,447 487,426.8 			"/>
		</g>
	</g>
	<polygon id="XMLID_81_" class="st3" points="531,237.9 531,216 505.8,216 505,216 505,218.3 505.9,218.5 	"/>
	<g id="XMLID_84_">
		
			<image style="overflow:visible;opacity:0.35;" width="220" height="235" id="XMLID_168_" xlink:href="837B31E3.png"  transform="matrix(1 0 0 1 479 324)">
		</image>
		<g id="XMLID_108_">
			
				<image style="overflow:visible;opacity:0.79;" width="165" height="179" id="XMLID_167_" xlink:href="837B31E1.png"  transform="matrix(1 0 0 1 506 352)">
			</image>
			<g id="XMLID_160_">
				<path id="XMLID_164_" class="st3" d="M518.4,394.8l12.6-5.4l43.4-18.8l0.5,23.1c13.9-1.8,28.3,3.5,37.8,15.4
					c14.5,18.1,11.7,44.7-6.2,59.4c-7.2,5.9-15.7,9.8-24.3,10.5c-1.8,0.1-3.6,0.1-5.4,0h-29v30.2h29.7v0.1c8,0.2,16.1-0.9,23.9-3.4
					c7.9-2.5,15.5-6.5,22.4-11.9c0.4-0.3,0.9-0.7,1.3-1c31.4-25.6,36.2-72,10.9-103.6c-11.5-14.4-27.2-23.2-43.9-26.2
					c-5.9-1.1-12-1.4-18-1c-14.4,1-28.7,6.3-40.8,16.2c-0.8,0.7-1.6,1.4-2.4,2.1C526,384.6,521.8,389.5,518.4,394.8z M624.7,473.7
					c17.5-18.2,20-38,21.5-37.5c1.6,0.5,1.1,23.1-13.5,41.9c-2.4,3.1-10,12.3-23.3,18.8c-21.4,10.3-43.6,6.6-43.7,4.8
					c-0.2-1.7,19.8-0.7,41.9-14.4C617.1,481.5,623,475.5,624.7,473.7z"/>
			</g>
		</g>
	</g>
	<g id="XMLID_85_">
		
			<image style="overflow:visible;opacity:0.79;" width="37" height="31" id="XMLID_25_" xlink:href="837B31E7.png"  transform="matrix(1 0 0 1 564 469)">
		</image>
		<g id="XMLID_15_">
			<path id="XMLID_22_" class="st3" d="M582.2,479h-5.4C578.6,479,580.4,479,582.2,479z"/>
		</g>
	</g>
	<path id="XMLID_86_" class="st3" d="M720.6,607.4c-2.4,7.7-9.4,12.7-17,12.9c1.6,1.2,3.3,2.1,5.3,2.7c9.6,3,19.8-2.4,22.8-12.1
		c3-9.7-2.3-20-11.9-23.1c-1.9-0.6-3.9-0.9-5.9-0.8C720.1,591.6,723,599.7,720.6,607.4z"/>
	<path id="XMLID_87_" class="st3" d="M699.8,617.6c2,0.3,4,0.2,5.9-0.2c-6.8-3.4-11-10.9-9.9-19c1.1-8,7.2-14.1,14.6-15.6
		c-1.7-0.9-3.6-1.5-5.6-1.8c-10-1.4-19.2,5.7-20.5,15.7C682.9,606.9,689.9,616.2,699.8,617.6z"/>
	<linearGradient id="XMLID_8_" gradientUnits="userSpaceOnUse" x1="252.7584" y1="338.6552" x2="757.6409" y2="630.1492">
		<stop  offset="0" style="stop-color:#FFFFFF"/>
		<stop  offset="0.1863" style="stop-color:#FCFCFC"/>
		<stop  offset="0.335" style="stop-color:#F2F2F2"/>
		<stop  offset="0.4707" style="stop-color:#E1E1E1"/>
		<stop  offset="0.5987" style="stop-color:#C9C9C9"/>
		<stop  offset="0.7214" style="stop-color:#ABABAB"/>
		<stop  offset="0.8399" style="stop-color:#858585"/>
		<stop  offset="0.9531" style="stop-color:#595959"/>
		<stop  offset="1" style="stop-color:#454545"/>
	</linearGradient>
	<ellipse id="XMLID_89_" class="st5" cx="709" cy="602.1" rx="7.4" ry="7.4"/>
	<linearGradient id="XMLID_9_" gradientUnits="userSpaceOnUse" x1="701.6379" y1="602.0742" x2="716.3891" y2="602.0742">
		<stop  offset="0" style="stop-color:#FFFFFF"/>
		<stop  offset="1" style="stop-color:#000000"/>
	</linearGradient>
	<ellipse id="XMLID_88_" class="st6" cx="709" cy="602.1" rx="7.4" ry="7.4"/>
	<path id="XMLID_90_" class="st3" d="M681.4,228.7c-38.6-24.1-83.2-39.6-130.9-44c-7.4-0.7-14.8-1.1-22.3-1.2
		C584.3,184.4,636.8,200.9,681.4,228.7c53.1,44.1,90.8,106.2,103.5,176.9c0,0.1,0,0.1,0,0.2c0,0,0,0,0,0.1c7,24.1,10.7,49.6,10.7,76
		c0,146.6-115.8,266.2-261.2,272.8c-4.2,0.2-8.4,0.3-12.6,0.3c-67.2,0-128.7-24.1-176.4-64.2c-54.1-33.2-95.7-84.6-116.2-145.7
		c0,0.1,0.1,0.3,0.1,0.4c20.6,61,62.2,112.3,116.1,145.4c47.7,40.1,109.2,64.2,176.4,64.2c4.2,0,8.5-0.1,12.6-0.3
		c-14.6,2.2-29.6,3.3-44.9,3.3c-57.8,0-111.8-16.3-157.6-44.6c51.8,42.6,118.2,68.1,190.6,68.1c165.7,0,300-133.9,300-299.1
		C822.6,375.4,766.2,281.5,681.4,228.7z"/>
	<path id="XMLID_91_" class="st3" d="M492.4,185C492.4,185,492.4,185,492.4,185c9.9-1,20-1.5,30.2-1.5
		C512.4,183.5,502.4,184,492.4,185z"/>
	<linearGradient id="XMLID_10_" gradientUnits="userSpaceOnUse" x1="159.0606" y1="521.1846" x2="464.041" y2="826.165">
		<stop  offset="0" style="stop-color:#FFFFFF"/>
		<stop  offset="1" style="stop-color:#000000"/>
	</linearGradient>
	<path id="XMLID_92_" class="st7" d="M331,712.6c-41.6-34.5-73.7-79.9-91.7-131.9c-0.2-0.5-0.4-1-0.6-1.5
		c18,52.7,50.3,98.8,92.3,133.6c0,0,0,0,0,0c0.4,0.2,0.7,0.4,1.1,0.7C331.7,713.2,331.4,712.9,331,712.6
		C331,712.6,331,712.6,331,712.6z"/>
	<linearGradient id="XMLID_11_" gradientUnits="userSpaceOnUse" x1="151.4256" y1="515.0798" x2="658.2973" y2="807.7223">
		<stop  offset="0" style="stop-color:#FFFFFF"/>
		<stop  offset="0.1863" style="stop-color:#FCFCFC"/>
		<stop  offset="0.335" style="stop-color:#F2F2F2"/>
		<stop  offset="0.4707" style="stop-color:#E1E1E1"/>
		<stop  offset="0.5987" style="stop-color:#C9C9C9"/>
		<stop  offset="0.7214" style="stop-color:#ABABAB"/>
		<stop  offset="0.8399" style="stop-color:#858585"/>
		<stop  offset="0.9531" style="stop-color:#595959"/>
		<stop  offset="1" style="stop-color:#454545"/>
	</linearGradient>
	<path id="XMLID_94_" class="st8" d="M229.3,545.4c0-0.1-0.1-0.2-0.1-0.3c2.5,11.6,5.6,23,9.4,34.1c0.2,0.5,0.4,1,0.6,1.5
		C235.2,569.2,231.9,557.4,229.3,545.4z"/>
	<linearGradient id="XMLID_14_" gradientUnits="userSpaceOnUse" x1="175.6714" y1="504.3262" x2="481.1981" y2="809.8529">
		<stop  offset="0" style="stop-color:#FFFFFF"/>
		<stop  offset="1" style="stop-color:#000000"/>
	</linearGradient>
	<path id="XMLID_93_" class="st9" d="M229.3,545.4c0-0.1-0.1-0.2-0.1-0.3c2.5,11.6,5.6,23,9.4,34.1c0.2,0.5,0.4,1,0.6,1.5
		C235.2,569.2,231.9,557.4,229.3,545.4z"/>
	<linearGradient id="XMLID_17_" gradientUnits="userSpaceOnUse" x1="375.8533" y1="123.4262" x2="880.9242" y2="415.029">
		<stop  offset="0" style="stop-color:#FFFFFF"/>
		<stop  offset="0.1863" style="stop-color:#FCFCFC"/>
		<stop  offset="0.335" style="stop-color:#F2F2F2"/>
		<stop  offset="0.4707" style="stop-color:#E1E1E1"/>
		<stop  offset="0.5987" style="stop-color:#C9C9C9"/>
		<stop  offset="0.7214" style="stop-color:#ABABAB"/>
		<stop  offset="0.8399" style="stop-color:#858585"/>
		<stop  offset="0.9531" style="stop-color:#595959"/>
		<stop  offset="1" style="stop-color:#454545"/>
	</linearGradient>
	<path id="XMLID_96_" class="st10" d="M665.2,249.1c-46.8-39.3-107-63.1-172.8-64.1c0,0,0,0,0,0C558.2,186,618.4,209.8,665.2,249.1
		c57.3,35.2,100.6,90.8,119.7,156.7c0-0.1,0-0.2,0-0.2C765.7,339.8,722.5,284.3,665.2,249.1z"/>
	<linearGradient id="XMLID_18_" gradientUnits="userSpaceOnUse" x1="522.2665" y1="155.1678" x2="826.7463" y2="459.6477">
		<stop  offset="0" style="stop-color:#FFFFFF"/>
		<stop  offset="1" style="stop-color:#000000"/>
	</linearGradient>
	<path id="XMLID_95_" class="st11" d="M665.2,249.1c-46.8-39.3-107-63.1-172.8-64.1c0,0,0,0,0,0C558.2,186,618.4,209.8,665.2,249.1
		c57.3,35.2,100.6,90.8,119.7,156.7c0-0.1,0-0.2,0-0.2C765.7,339.8,722.5,284.3,665.2,249.1z"/>
	<path id="XMLID_98_" class="st3" d="M489.6,758.1c15.3,0,30.2-1.1,44.9-3.3c-4.2,0.2-8.4,0.3-12.6,0.3
		c-67.2,0-128.7-24.1-176.4-64.2c-54-33.2-95.5-84.5-116.1-145.4c2.6,12.1,5.9,23.9,9.9,35.3c18.1,52,50.2,97.5,91.7,131.9
		c0,0,0,0,0,0c0.4,0.3,0.7,0.6,1.1,0.9C377.9,741.8,431.8,758.1,489.6,758.1z"/>
	<linearGradient id="XMLID_19_" gradientUnits="userSpaceOnUse" x1="189.2305" y1="491.0977" x2="493.69" y2="795.5571">
		<stop  offset="0" style="stop-color:#FFFFFF"/>
		<stop  offset="1" style="stop-color:#000000"/>
	</linearGradient>
	<path id="XMLID_97_" class="st12" d="M489.6,758.1c15.3,0,30.2-1.1,44.9-3.3c-4.2,0.2-8.4,0.3-12.6,0.3
		c-67.2,0-128.7-24.1-176.4-64.2c-54-33.2-95.5-84.5-116.1-145.4c2.6,12.1,5.9,23.9,9.9,35.3c18.1,52,50.2,97.5,91.7,131.9
		c0,0,0,0,0,0c0.4,0.3,0.7,0.6,1.1,0.9C377.9,741.8,431.8,758.1,489.6,758.1z"/>
	<path id="XMLID_100_" class="st3" d="M492.4,184.9c65.8,0.8,126,24.8,172.8,64.2c57.2,35.1,100.5,90.7,119.6,156.5
		c-12.7-70.7-50.4-132.8-103.5-176.9c-44.6-27.8-97.1-44.2-153.3-45.2c-1.8,0-3.6,0-5.5,0C512.4,183.4,502.4,183.9,492.4,184.9z"/>
	<linearGradient id="XMLID_20_" gradientUnits="userSpaceOnUse" x1="529.1846" y1="148.1514" x2="833.7098" y2="452.6766">
		<stop  offset="0" style="stop-color:#FFFFFF"/>
		<stop  offset="1" style="stop-color:#000000"/>
	</linearGradient>
	<path id="XMLID_99_" class="st13" d="M492.4,184.9c65.8,0.8,126,24.8,172.8,64.2c57.2,35.1,100.5,90.7,119.6,156.5
		c-12.7-70.7-50.4-132.8-103.5-176.9c-44.6-27.8-97.1-44.2-153.3-45.2c-1.8,0-3.6,0-5.5,0C512.4,183.4,502.4,183.9,492.4,184.9z"/>
	<path id="XMLID_101_" class="st14" d="M607.6,487.3c-22.2,13.6-42.1,12.7-41.9,14.4c0.2,1.8,22.3,5.6,43.7-4.8
		c13.3-6.4,20.9-15.6,23.3-18.8c14.6-18.8,15.1-41.5,13.5-41.9c-1.5-0.4-4,19.4-21.5,37.5C623,475.5,617.1,481.5,607.6,487.3z"/>
	<path id="XMLID_102_" class="st14" d="M394.3,486.9c25.1-15.1,50.7-9.4,50.7-11.3c0-2-27.1-10-52.9,2.1
		c-13.6,6.4-21.1,15.8-22.7,17.7c-18.1,23.1-13.9,53.9-12.6,54.1c0.9,0.1-0.1-15.4,9.8-33.5C369.7,510.5,378.2,496.6,394.3,486.9z"
		/>
</g>
</svg>
